ply
format ascii 1.0
comment Created in Blender version 4.4.0
element vertex 18
property float x
property float y
property float z
property float nx
property float ny
property float nz
property float s
property float t
element face 14
property list uchar uint vertex_indices
end_header
1.0055151 -0.988117 0 0 0 1 1 0
-1.0055151 0.988117 0 0 0 1 0 1
-0.988117 -1.0055151 0 0 0 1 0 0
0.988117 1.0055151 0 0 0 1 1 1
-0.037360795 0.006735407 0.48680395 -0.7001603 -0.7001206 0.14002414 0.625 0
-0.037360795 0.060275756 0.2191022 -0.7001603 0.7001206 -0.14002414 0.375 0.25
-0.037360795 0.006735407 0.2191022 -0.7001198 -0.70015943 -0.1400319 0.375 0
-0.037360795 0.060275756 0.48680395 -0.7001198 0.70015943 0.1400319 0.625 0.25
0.016179554 0.060275756 0.2191022 0.7001198 0.70015943 -0.1400319 0.375 0.5
0.016179554 0.060275756 0.48680395 0.7001603 0.7001206 0.14002414 0.625 0.5
0.016179554 0.006735407 0.2191022 0.7001603 -0.7001206 -0.14002414 0.375 0.75
0.016179554 0.006735407 0.48680395 0.7001198 -0.70015943 0.1400319 0.625 0.75
-0.037360795 0.006735407 0.2191022 -0.7001198 -0.70015943 -0.1400319 0.375 1
-0.037360795 0.006735407 0.2191022 -0.7001198 -0.70015943 -0.1400319 0.125 0.75
-0.037360795 0.060275756 0.2191022 -0.7001603 0.7001206 -0.14002414 0.125 0.5
-0.037360795 0.060275756 0.48680395 -0.7001198 0.70015943 0.1400319 0.875 0.5
-0.037360795 0.006735407 0.48680395 -0.7001603 -0.7001206 0.14002414 0.625 1
-0.037360795 0.006735407 0.48680395 -0.7001603 -0.7001206 0.14002414 0.875 0.75
3 0 1 2
3 0 3 1
3 4 5 6
3 7 8 5
3 9 10 8
3 11 12 10
3 8 13 14
3 15 11 9
3 4 7 5
3 7 9 8
3 9 11 10
3 11 16 12
3 8 10 13
3 15 17 11
